# Blender v2.78 (sub 0) OBJ File: ''
# www.blender.org
mtllib shard_axe_water.mtl
o shape8
v -0.090612 0.673655 -0.224076
v 0.034388 0.673655 -0.224076
v 0.034388 0.894626 -0.003105
v -0.090612 0.894626 -0.003105
v 0.034388 0.894626 -0.445047
v -0.090612 0.894626 -0.445047
v -0.090612 1.115597 -0.224076
v 0.034388 1.115597 -0.224076
v -0.090612 0.737792 0.314868
v 0.034388 0.737792 0.314868
v 0.034388 0.852442 0.364672
v -0.090612 0.852442 0.364672
v 0.034388 0.862301 0.028243
v -0.090612 0.862301 0.028243
v -0.090612 0.976951 0.078047
v 0.034388 0.976951 0.078047
v -0.090612 0.013376 0.059395
v 0.034388 0.013376 0.059395
v 0.034388 0.888376 0.059395
v -0.090612 0.888376 0.059395
v 0.034388 0.013376 -0.065605
v -0.090612 0.013376 -0.065605
v -0.090612 0.888376 -0.065605
v 0.034388 0.888376 -0.065605
v -0.153112 0.717849 -0.003105
v 0.096888 0.717849 -0.003105
v 0.096888 0.894626 0.173672
v -0.153112 0.894626 0.173672
v 0.096888 0.894626 -0.179882
v -0.153112 0.894626 -0.179882
v -0.153112 1.071403 -0.003105
v 0.096888 1.071403 -0.003105
v -0.121862 0.519626 0.090645
v 0.065638 0.519626 0.090645
v 0.065638 0.894626 0.090645
v -0.121862 0.894626 0.090645
v 0.065638 0.519626 -0.096855
v -0.121862 0.519626 -0.096855
v -0.121862 0.894626 -0.096855
v 0.065638 0.894626 -0.096855
vt 0.4375 0.3900
vt 0.4683 0.3903
vt 0.4688 0.4688
vt 0.4375 0.4688
vt 0.5453 0.3892
vt 0.5781 0.3892
vt 0.5781 0.4688
vt 0.5469 0.4688
vt 0.4684 0.5469
vt 0.4384 0.5463
vt 0.4688 0.4688
vt 0.5000 0.4688
vt 0.5006 0.5469
vt 0.4681 0.5469
vt 0.3602 0.3900
vt 0.3594 0.4688
vt 0.6094 0.8125
vt 0.6404 0.8125
vt 0.6406 0.8438
vt 0.6094 0.8438
vt 0.7183 0.8130
vt 0.7505 0.8130
vt 0.7500 0.8438
vt 0.7188 0.8438
vt 0.6406 0.9219
vt 0.6096 0.9216
vt 0.6406 0.8438
vt 0.6719 0.8438
vt 0.6721 0.9219
vt 0.6406 0.9219
vt 0.5322 0.8140
vt 0.5312 0.8438
vt 0.0312 0.5000
vt 0.0625 0.5000
vt 0.0625 0.9375
vt 0.0312 0.9375
vt 0.0938 0.5000
vt 0.1250 0.5000
vt 0.1250 0.9375
vt 0.0938 0.9375
vt 0.0625 1.0000
vt 0.0312 1.0000
vt 0.0625 0.9375
vt 0.0938 0.9375
vt 0.0938 1.0000
vt 0.0625 1.0000
vt 0.0000 0.5000
vt 0.0000 0.9375
vt 0.2805 0.8120
vt 0.3438 0.8128
vt 0.3438 0.8750
vt 0.2812 0.8750
vt 0.4070 0.8120
vt 0.4680 0.8112
vt 0.4688 0.8750
vt 0.4062 0.8750
vt 0.3430 0.9376
vt 0.2817 0.9371
vt 0.3438 0.8750
vt 0.4062 0.8750
vt 0.4067 0.9373
vt 0.3430 0.9374
vt 0.2203 0.8120
vt 0.2188 0.8750
vt 0.1250 0.2812
vt 0.1719 0.2803
vt 0.1719 0.3750
vt 0.1250 0.3750
vt 0.2168 0.2803
vt 0.2637 0.2803
vt 0.2656 0.3750
vt 0.2188 0.3750
vt 0.1719 0.4207
vt 0.1250 0.4215
vt 0.1719 0.3750
vt 0.2188 0.3750
vt 0.2180 0.4207
vt 0.1719 0.4207
vt 0.0781 0.2822
vt 0.0781 0.3750
vn 0.0000 -0.7071 0.7071
vn 0.0000 0.7071 -0.7071
vn 0.0000 0.7071 0.7071
vn 0.0000 -0.7071 -0.7071
vn -1.0000 -0.0000 0.0000
vn 1.0000 0.0000 0.0000
vn 0.0000 -0.3984 0.9172
vn 0.0000 0.3984 -0.9172
vn 0.0000 0.9172 0.3984
vn 0.0000 -0.9172 -0.3984
vn 0.0000 -0.0000 1.0000
vn 0.0000 0.0000 -1.0000
vn 0.0000 1.0000 0.0000
vn 0.0000 -1.0000 0.0000
usemtl None
s off
f 1/1/1 2/2/1 3/3/1 4/4/1
f 5/5/2 6/6/2 7/7/2 8/8/2
f 4/4/3 3/3/3 8/9/3 7/10/3
f 6/11/4 5/12/4 2/13/4 1/14/4
f 6/15/5 1/1/5 4/4/5 7/16/5
f 2/2/6 5/5/6 8/8/6 3/3/6
f 9/17/7 10/18/7 11/19/7 12/20/7
f 13/21/8 14/22/8 15/23/8 16/24/8
f 12/20/9 11/19/9 16/25/9 15/26/9
f 14/27/10 13/28/10 10/29/10 9/30/10
f 14/31/5 9/17/5 12/20/5 15/32/5
f 10/18/6 13/21/6 16/24/6 11/19/6
f 17/33/11 18/34/11 19/35/11 20/36/11
f 21/37/12 22/38/12 23/39/12 24/40/12
f 20/36/13 19/35/13 24/41/13 23/42/13
f 22/43/14 21/44/14 18/45/14 17/46/14
f 22/47/5 17/33/5 20/36/5 23/48/5
f 18/34/6 21/37/6 24/40/6 19/35/6
f 25/49/1 26/50/1 27/51/1 28/52/1
f 29/53/2 30/54/2 31/55/2 32/56/2
f 28/52/3 27/51/3 32/57/3 31/58/3
f 30/59/4 29/60/4 26/61/4 25/62/4
f 30/63/5 25/49/5 28/52/5 31/64/5
f 26/50/6 29/53/6 32/56/6 27/51/6
f 33/65/11 34/66/11 35/67/11 36/68/11
f 37/69/12 38/70/12 39/71/12 40/72/12
f 36/68/13 35/67/13 40/73/13 39/74/13
f 38/75/14 37/76/14 34/77/14 33/78/14
f 38/79/5 33/65/5 36/68/5 39/80/5
f 34/66/6 37/69/6 40/72/6 35/67/6
