# Blender v2.78 (sub 0) OBJ File: ''
# www.blender.org
mtllib mana_vase_water.mtl
o vent1
v 0.872163 0.024170 0.613104
v 0.872163 0.024170 0.363104
v 0.872163 0.274170 0.363104
v 0.872163 0.274170 0.613104
v 0.122163 0.024170 0.363104
v 0.122163 0.024170 0.613104
v 0.122163 0.274170 0.613104
v 0.122163 0.274170 0.363104
v 0.778413 0.036670 0.206854
v 0.215913 0.036670 0.206854
v 0.215913 0.599170 0.206854
v 0.778413 0.599170 0.206854
v 0.215913 0.036670 0.769354
v 0.778413 0.036670 0.769354
v 0.778413 0.599170 0.769354
v 0.215913 0.599170 0.769354
v 0.715913 0.755420 0.275604
v 0.278413 0.755420 0.275604
v 0.278413 1.005420 0.275604
v 0.715913 1.005420 0.275604
v 0.278413 0.755420 0.713104
v 0.715913 0.755420 0.713104
v 0.715913 1.005420 0.713104
v 0.278413 1.005420 0.713104
v 0.622163 0.024170 0.113104
v 0.372163 0.024170 0.113104
v 0.372163 0.274170 0.113104
v 0.622163 0.274170 0.113104
v 0.372163 0.024170 0.863104
v 0.622163 0.024170 0.863104
v 0.622163 0.274170 0.863104
v 0.372163 0.274170 0.863104
v 0.684663 -0.038330 0.300604
v 0.309663 -0.038330 0.300604
v 0.309663 0.836670 0.300604
v 0.684663 0.836670 0.300604
v 0.309663 -0.038330 0.675604
v 0.684663 -0.038330 0.675604
v 0.684663 0.836670 0.675604
v 0.309663 0.836670 0.675604
vt 0.1875 0.0156
vt 0.2500 0.0156
vt 0.2500 0.0781
vt 0.1875 0.0781
vt 0.4375 0.0156
vt 0.5000 0.0156
vt 0.5000 0.0781
vt 0.4375 0.0781
vt 0.2500 0.2656
vt 0.1875 0.2656
vt 0.2500 0.0781
vt 0.3125 0.0781
vt 0.3125 0.2656
vt 0.2500 0.2656
vt 0.0000 0.0156
vt 0.0000 0.0781
vt 0.5469 0.5625
vt 0.6875 0.5625
vt 0.6875 0.7031
vt 0.5469 0.7031
vt 0.8281 0.5625
vt 0.9688 0.5625
vt 0.9688 0.7031
vt 0.8281 0.7031
vt 0.6875 0.8438
vt 0.5469 0.8438
vt 0.6875 0.7031
vt 0.8281 0.7031
vt 0.8281 0.8438
vt 0.6875 0.8438
vt 0.4062 0.5625
vt 0.4062 0.7031
vt 0.1094 0.8281
vt 0.2188 0.8281
vt 0.2188 0.8906
vt 0.1094 0.8906
vt 0.3281 0.8281
vt 0.4375 0.8281
vt 0.4375 0.8906
vt 0.3281 0.8906
vt 0.2188 1.0000
vt 0.1094 1.0000
vt 0.2188 0.8906
vt 0.3281 0.8906
vt 0.3281 1.0000
vt 0.2188 1.0000
vt 0.0000 0.8281
vt 0.0000 0.8906
vt 0.1875 0.0156
vt 0.2500 0.0156
vt 0.2500 0.0781
vt 0.1875 0.0781
vt 0.4375 0.0156
vt 0.5000 0.0156
vt 0.5000 0.0781
vt 0.4375 0.0781
vt 0.2500 0.2656
vt 0.1875 0.2656
vt 0.2500 0.0781
vt 0.3125 0.0781
vt 0.3125 0.2656
vt 0.2500 0.2656
vt 0.0000 0.0156
vt 0.0000 0.0781
vt 0.0938 0.3906
vt 0.1875 0.3906
vt 0.1875 0.6094
vt 0.0938 0.6094
vt 0.2812 0.3906
vt 0.3750 0.3906
vt 0.3750 0.6094
vt 0.2812 0.6094
vt 0.1875 0.7031
vt 0.0938 0.7031
vt 0.1875 0.6094
vt 0.2812 0.6094
vt 0.2812 0.7031
vt 0.1875 0.7031
vt 0.0000 0.3906
vt 0.0000 0.6094
vn 1.0000 0.0000 0.0000
vn -1.0000 0.0000 0.0000
vn 0.0000 1.0000 0.0000
vn 0.0000 -1.0000 0.0000
vn 0.0000 0.0000 1.0000
vn 0.0000 0.0000 -1.0000
usemtl None
s off
f 1/1/1 2/2/1 3/3/1 4/4/1
f 5/5/2 6/6/2 7/7/2 8/8/2
f 4/4/3 3/3/3 8/9/3 7/10/3
f 6/11/4 5/12/4 2/13/4 1/14/4
f 6/15/5 1/1/5 4/4/5 7/16/5
f 2/2/6 5/5/6 8/8/6 3/3/6
f 9/17/6 10/18/6 11/19/6 12/20/6
f 13/21/5 14/22/5 15/23/5 16/24/5
f 12/20/3 11/19/3 16/25/3 15/26/3
f 14/27/4 13/28/4 10/29/4 9/30/4
f 14/31/1 9/17/1 12/20/1 15/32/1
f 10/18/2 13/21/2 16/24/2 11/19/2
f 17/33/6 18/34/6 19/35/6 20/36/6
f 21/37/5 22/38/5 23/39/5 24/40/5
f 20/36/3 19/35/3 24/41/3 23/42/3
f 22/43/4 21/44/4 18/45/4 17/46/4
f 22/47/1 17/33/1 20/36/1 23/48/1
f 18/34/2 21/37/2 24/40/2 19/35/2
f 25/49/6 26/50/6 27/51/6 28/52/6
f 29/53/5 30/54/5 31/55/5 32/56/5
f 28/52/3 27/51/3 32/57/3 31/58/3
f 30/59/4 29/60/4 26/61/4 25/62/4
f 30/63/1 25/49/1 28/52/1 31/64/1
f 26/50/2 29/53/2 32/56/2 27/51/2
f 33/65/6 34/66/6 35/67/6 36/68/6
f 37/69/5 38/70/5 39/71/5 40/72/5
f 36/68/3 35/67/3 40/73/3 39/74/3
f 38/75/4 37/76/4 34/77/4 33/78/4
f 38/79/1 33/65/1 36/68/1 39/80/1
f 34/66/2 37/69/2 40/72/2 35/67/2
