# Blender v2.78 (sub 0) OBJ File: ''
# www.blender.org
mtllib pedestal_block_water.mtl
o Top
v 0.830793 -0.058919 0.176613
v 0.205793 -0.058919 0.176613
v 0.205793 0.191081 0.176613
v 0.830793 0.191081 0.176613
v 0.205793 -0.058919 0.801613
v 0.830793 -0.058919 0.801613
v 0.830793 0.191081 0.801613
v 0.205793 0.191081 0.801613
v 0.705793 0.191081 0.301613
v 0.330793 0.191081 0.301613
v 0.330793 0.691081 0.301613
v 0.705793 0.691081 0.301613
v 0.330793 0.191081 0.676613
v 0.705793 0.191081 0.676613
v 0.705793 0.691081 0.676613
v 0.330793 0.691081 0.676613
v 0.307649 0.140391 0.190081
v 0.219261 0.140391 0.278469
v 0.267734 0.698698 0.326942
v 0.356122 0.698698 0.238554
v 0.306990 0.125157 0.366199
v 0.395379 0.125157 0.277810
v 0.443852 0.683464 0.326284
v 0.355464 0.683464 0.414672
v 0.219261 0.140391 0.699757
v 0.307649 0.140391 0.788145
v 0.356122 0.698698 0.739672
v 0.267734 0.698698 0.651284
v 0.395379 0.125157 0.700416
v 0.306990 0.125157 0.612027
v 0.355464 0.683464 0.563554
v 0.443852 0.683464 0.651942
v 0.768293 0.691081 0.239113
v 0.268293 0.691081 0.239113
v 0.268293 0.878581 0.239113
v 0.768293 0.878581 0.239113
v 0.268293 0.691081 0.739113
v 0.768293 0.691081 0.739113
v 0.768293 0.878581 0.739113
v 0.268293 0.878581 0.739113
v 0.817325 0.140391 0.278469
v 0.728937 0.140391 0.190081
v 0.680464 0.698698 0.238554
v 0.768852 0.698698 0.326942
v 0.641207 0.125157 0.277810
v 0.729596 0.125157 0.366199
v 0.681122 0.683464 0.414672
v 0.592734 0.683464 0.326284
v 0.728937 0.140391 0.788145
v 0.817325 0.140391 0.699757
v 0.768852 0.698698 0.651284
v 0.680464 0.698698 0.739672
v 0.729596 0.125157 0.612027
v 0.641207 0.125157 0.700416
v 0.592734 0.683464 0.651942
v 0.681122 0.683464 0.563554
vt 0.1562 0.0312
vt 0.3125 0.0312
vt 0.3125 0.0938
vt 0.1562 0.0938
vt 0.4688 0.0312
vt 0.6250 0.0312
vt 0.6250 0.0938
vt 0.4688 0.0938
vt 0.3125 0.2500
vt 0.1562 0.2500
vt 0.3125 0.0938
vt 0.4688 0.0938
vt 0.4688 0.2500
vt 0.3125 0.2500
vt 0.0000 0.0312
vt 0.0000 0.0938
vt 0.0938 0.2969
vt 0.1875 0.2969
vt 0.1875 0.4219
vt 0.0938 0.4219
vt 0.2812 0.2969
vt 0.3750 0.2969
vt 0.3750 0.4219
vt 0.2812 0.4219
vt 0.1875 0.5156
vt 0.0938 0.5156
vt 0.1875 0.4219
vt 0.2812 0.4219
vt 0.2812 0.5156
vt 0.1875 0.5156
vt 0.0000 0.2969
vt 0.0000 0.4219
vt 0.0312 0.5938
vt 0.0625 0.5938
vt 0.0625 0.7344
vt 0.0312 0.7344
vt 0.0938 0.5938
vt 0.1250 0.5938
vt 0.1250 0.7344
vt 0.0938 0.7344
vt 0.0625 0.7656
vt 0.0312 0.7656
vt 0.0625 0.7344
vt 0.0938 0.7344
vt 0.0938 0.7656
vt 0.0625 0.7656
vt 0.0000 0.5938
vt 0.0000 0.7344
vt 0.0312 0.5938
vt 0.0625 0.5938
vt 0.0625 0.7344
vt 0.0312 0.7344
vt 0.0938 0.5938
vt 0.1250 0.5938
vt 0.1250 0.7344
vt 0.0938 0.7344
vt 0.0625 0.7656
vt 0.0312 0.7656
vt 0.0625 0.7344
vt 0.0938 0.7344
vt 0.0938 0.7656
vt 0.0625 0.7656
vt 0.0000 0.5938
vt 0.0000 0.7344
vt 0.1250 0.8281
vt 0.2500 0.8281
vt 0.2500 0.8750
vt 0.1250 0.8750
vt 0.3750 0.8281
vt 0.5000 0.8281
vt 0.5000 0.8750
vt 0.3750 0.8750
vt 0.2500 1.0000
vt 0.1250 1.0000
vt 0.2500 0.8750
vt 0.3750 0.8750
vt 0.3750 1.0000
vt 0.2500 1.0000
vt 0.0000 0.8281
vt 0.0000 0.8750
vt 0.0312 0.5938
vt 0.0625 0.5938
vt 0.0625 0.7344
vt 0.0312 0.7344
vt 0.0938 0.5938
vt 0.1250 0.5938
vt 0.1250 0.7344
vt 0.0938 0.7344
vt 0.0625 0.7656
vt 0.0312 0.7656
vt 0.0625 0.7344
vt 0.0938 0.7344
vt 0.0938 0.7656
vt 0.0625 0.7656
vt 0.0000 0.5938
vt 0.0000 0.7344
vt 0.0312 0.5938
vt 0.0625 0.5938
vt 0.0625 0.7344
vt 0.0312 0.7344
vt 0.0938 0.5938
vt 0.1250 0.5938
vt 0.1250 0.7344
vt 0.0938 0.7344
vt 0.0625 0.7656
vt 0.0312 0.7656
vt 0.0625 0.7344
vt 0.0938 0.7344
vt 0.0938 0.7656
vt 0.0625 0.7656
vt 0.0000 0.5938
vt 0.0000 0.7344
vn 0.0000 0.0000 -1.0000
vn 0.0000 0.0000 1.0000
vn 0.0000 1.0000 0.0000
vn 0.0000 -1.0000 0.0000
vn 1.0000 0.0000 0.0000
vn -1.0000 0.0000 0.0000
vn -0.7018 0.1219 -0.7018
vn 0.7018 -0.1219 0.7018
vn 0.0862 0.9925 0.0862
vn -0.0862 -0.9925 -0.0862
vn 0.7071 0.0000 -0.7071
vn -0.7071 0.0000 0.7071
vn -0.7018 0.1219 0.7018
vn 0.7018 -0.1219 -0.7018
vn 0.0862 0.9925 -0.0862
vn -0.0862 -0.9925 0.0862
vn -0.7071 0.0000 -0.7071
vn 0.7071 0.0000 0.7071
vn 0.7018 0.1219 -0.7018
vn -0.7018 -0.1219 0.7018
vn -0.0862 0.9925 0.0862
vn 0.0862 -0.9925 -0.0862
vn 0.7018 0.1219 0.7018
vn -0.7018 -0.1219 -0.7018
vn -0.0862 0.9925 -0.0862
vn 0.0862 -0.9925 0.0862
usemtl None
s off
f 1/1/1 2/2/1 3/3/1 4/4/1
f 5/5/2 6/6/2 7/7/2 8/8/2
f 4/4/3 3/3/3 8/9/3 7/10/3
f 6/11/4 5/12/4 2/13/4 1/14/4
f 6/15/5 1/1/5 4/4/5 7/16/5
f 2/2/6 5/5/6 8/8/6 3/3/6
f 9/17/1 10/18/1 11/19/1 12/20/1
f 13/21/2 14/22/2 15/23/2 16/24/2
f 12/20/3 11/19/3 16/25/3 15/26/3
f 14/27/4 13/28/4 10/29/4 9/30/4
f 14/31/5 9/17/5 12/20/5 15/32/5
f 10/18/6 13/21/6 16/24/6 11/19/6
f 17/33/7 18/34/7 19/35/7 20/36/7
f 21/37/8 22/38/8 23/39/8 24/40/8
f 20/36/9 19/35/9 24/41/9 23/42/9
f 22/43/10 21/44/10 18/45/10 17/46/10
f 22/47/11 17/33/11 20/36/11 23/48/11
f 18/34/12 21/37/12 24/40/12 19/35/12
f 25/49/13 26/50/13 27/51/13 28/52/13
f 29/53/14 30/54/14 31/55/14 32/56/14
f 28/52/15 27/51/15 32/57/15 31/58/15
f 30/59/16 29/60/16 26/61/16 25/62/16
f 30/63/17 25/49/17 28/52/17 31/64/17
f 26/50/18 29/53/18 32/56/18 27/51/18
f 33/65/1 34/66/1 35/67/1 36/68/1
f 37/69/2 38/70/2 39/71/2 40/72/2
f 36/68/3 35/67/3 40/73/3 39/74/3
f 38/75/4 37/76/4 34/77/4 33/78/4
f 38/79/5 33/65/5 36/68/5 39/80/5
f 34/66/6 37/69/6 40/72/6 35/67/6
f 41/81/19 42/82/19 43/83/19 44/84/19
f 45/85/20 46/86/20 47/87/20 48/88/20
f 44/84/21 43/83/21 48/89/21 47/90/21
f 46/91/22 45/92/22 42/93/22 41/94/22
f 46/95/18 41/81/18 44/84/18 47/96/18
f 42/82/17 45/85/17 48/88/17 43/83/17
f 49/97/23 50/98/23 51/99/23 52/100/23
f 53/101/24 54/102/24 55/103/24 56/104/24
f 52/100/25 51/99/25 56/105/25 55/106/25
f 54/107/26 53/108/26 50/109/26 49/110/26
f 54/111/12 49/97/12 52/100/12 55/112/12
f 50/98/11 53/101/11 56/104/11 51/99/11
